<svg width="400" height="267" viewBox="0 0 400 267" fill="none" xmlns="http://www.w3.org/2000/svg">
  <path
    d="M0 8.31299H400V226.313C400 241.398 400 248.94 395.314 253.627C390.627 258.313 383.085 258.313 368 258.313H32C16.9151 258.313 9.37258 258.313 4.68629 253.627C0 248.94 0 241.398 0 226.313V8.31299Z"
    fill="#C2E4B2" />
  <path
    d="M0 8.31299H400V226.313C400 241.398 400 248.94 395.314 253.627C390.627 258.313 383.085 258.313 368 258.313H32C16.9151 258.313 9.37258 258.313 4.68629 253.627C0 248.94 0 241.398 0 226.313V8.31299Z"
    fill="url(#paint0_linear_154_72)" fill-opacity="0.2" />
  <rect x="162" y="0.312988" width="76" height="266" rx="8" fill="url(#paint1_linear_154_72)" />
  <defs>
    <linearGradient id="paint0_linear_154_72" x1="200" y1="8.31299" x2="200" y2="258.313"
      gradientUnits="userSpaceOnUse">
      <stop stop-color="#C2E4B2" />
      <stop offset="0.5" stop-color="#C2E4B2" />
    </linearGradient>
    <linearGradient id="paint1_linear_154_72" x1="200" y1="0.312988" x2="200" y2="266.313"
      gradientUnits="userSpaceOnUse">
      <stop stop-color="#F6E4A8" />
      <stop offset="0.39" stop-color="#F6E4A8" />
    </linearGradient>
  </defs>
</svg>