<svg width="430" height="197" viewBox="0 0 430 197" fill="none" xmlns="http://www.w3.org/2000/svg">
<path d="M189.719 110.907L188.604 130.876L218.045 132.519L208.684 104.558L189.719 110.907ZM189.719 110.907C208.684 104.558 208.683 104.554 208.681 104.549L208.678 104.539L208.669 104.513L208.646 104.443C208.627 104.389 208.603 104.318 208.574 104.232C208.515 104.06 208.434 103.826 208.331 103.534C208.126 102.949 207.833 102.131 207.456 101.11C206.702 99.0722 205.604 96.2141 204.181 92.7965C201.355 86.0093 197.153 76.7856 191.704 67.3133C186.325 57.9627 179.311 47.625 170.65 39.1374C162.111 30.7685 150.371 22.6505 135.632 21.1087C115.194 18.9707 96.7263 23.0139 84.5656 37.3207C73.3708 50.491 71.7325 67.7487 72.2961 81.5877C72.7083 91.7081 78.0545 99.1436 83.2109 103.89C88.2524 108.53 94.3594 111.837 99.967 114.27C111.261 119.172 125.19 122.489 137.773 124.795C150.625 127.149 163.302 128.66 172.677 129.583C177.388 130.047 181.321 130.367 184.095 130.573C185.483 130.676 186.584 130.75 187.351 130.799C187.734 130.824 188.034 130.842 188.245 130.855C188.351 130.861 188.434 130.866 188.494 130.87L188.566 130.874L188.59 130.875L188.598 130.876C188.601 130.876 188.604 130.876 189.719 110.907Z" stroke="#F6E4A8" stroke-width="40"/>
<path d="M240.291 110.757L241.423 130.725L211.875 132.4L221.342 104.359L240.291 110.757ZM240.291 110.757C221.342 104.359 221.343 104.355 221.345 104.35L221.348 104.34L221.357 104.314L221.381 104.245C221.399 104.19 221.423 104.12 221.453 104.034C221.512 103.863 221.594 103.63 221.697 103.338C221.903 102.756 222.197 101.941 222.575 100.925C223.332 98.8962 224.434 96.0512 225.861 92.6495C228.695 85.8936 232.909 76.7126 238.37 67.2829C243.761 57.9736 250.787 47.6834 259.455 39.2333C268.005 30.899 279.733 22.8317 294.432 21.285C314.823 19.1395 333.286 23.117 345.458 37.3667C356.683 50.5071 358.3 67.7387 357.72 81.519C357.293 91.6524 351.907 99.0718 346.76 103.786C341.719 108.402 335.618 111.692 330.016 114.116C318.731 118.999 304.811 122.312 292.232 124.619C279.386 126.974 266.714 128.492 257.343 129.421C252.633 129.887 248.702 130.21 245.929 130.418C244.542 130.522 243.441 130.597 242.675 130.647C242.292 130.672 241.992 130.691 241.782 130.703C241.676 130.71 241.593 130.715 241.533 130.718L241.461 130.722L241.438 130.724L241.429 130.724C241.426 130.724 241.423 130.725 240.291 110.757Z" stroke="#F6E4A8" stroke-width="40"/>
<rect y="115.313" width="430" height="75" rx="16" fill="#C2E4B2"/>
<rect x="172" y="108.813" width="86" height="88" rx="8" fill="#F6E4A8"/>
</svg>
