<svg width="25" height="25" viewBox="0 0 25 25" fill="none" xmlns="http://www.w3.org/2000/svg">
  <path
    d="M12.0968 0.723938L14.5305 7.05178C14.8717 7.93874 15.0423 8.38222 15.3075 8.75525C15.5426 9.08586 15.8314 9.37472 16.1621 9.60981C16.5351 9.87506 16.9786 10.0456 17.8655 10.3868L24.1934 12.8205L17.8655 15.2543C16.9786 15.5955 16.5351 15.766 16.1621 16.0313C15.8314 16.2664 15.5426 16.5552 15.3075 16.8858C15.0423 17.2589 14.8717 17.7024 14.5305 18.5893L12.0968 24.9172L9.66298 18.5893C9.32184 17.7024 9.15127 17.2589 8.88602 16.8858C8.65094 16.5552 8.36208 16.2664 8.03146 16.0313C7.65843 15.766 7.21495 15.5955 6.32799 15.2543L0.000152588 12.8205L6.32799 10.3868C7.21495 10.0456 7.65843 9.87506 8.03146 9.60981C8.36208 9.37472 8.65094 9.08586 8.88602 8.75525C9.15127 8.38222 9.32184 7.93874 9.66298 7.05178L12.0968 0.723938Z"
    fill="#B1D99F" />
</svg>