<svg width="400" height="267" viewBox="0 0 400 267" fill="none" xmlns="http://www.w3.org/2000/svg">
  <path
    d="M0 8.81299H400V226.813C400 241.898 400 249.44 395.314 254.127C390.627 258.813 383.085 258.813 368 258.813H32C16.9151 258.813 9.37258 258.813 4.68629 254.127C0 249.44 0 241.898 0 226.813V8.81299Z"
    fill="#F6E4A8" />
  <path
    d="M0 8.81299H400V226.813C400 241.898 400 249.44 395.314 254.127C390.627 258.813 383.085 258.813 368 258.813H32C16.9151 258.813 9.37258 258.813 4.68629 254.127C0 249.44 0 241.898 0 226.813V8.81299Z"
    fill="url(#paint0_linear_154_87)" fill-opacity="0.2" />
  <rect x="162" y="0.812988" width="76" height="266" rx="8" fill="url(#paint1_linear_154_87)" />
  <defs>
    <linearGradient id="paint0_linear_154_87" x1="200" y1="8.81299" x2="200" y2="258.813"
      gradientUnits="userSpaceOnUse">
      <stop stop-color="#F6E4A8" />
      <stop offset="0.5" stop-color="#F6E4A8" />
    </linearGradient>
    <linearGradient id="paint1_linear_154_87" x1="200" y1="0.812988" x2="200" y2="266.813"
      gradientUnits="userSpaceOnUse">
      <stop stop-color="#C2E4B2" />
      <stop offset="0.39" stop-color="#C2E4B2" />
    </linearGradient>
  </defs>
</svg>