<svg width="430" height="197" viewBox="0 0 430 197" fill="none" xmlns="http://www.w3.org/2000/svg">
<path d="M189.719 110.407L188.604 130.376L218.045 132.019L208.684 104.058L189.719 110.407ZM189.719 110.407C208.684 104.058 208.683 104.054 208.681 104.049L208.678 104.039L208.669 104.013L208.646 103.943C208.627 103.889 208.603 103.818 208.574 103.732C208.515 103.56 208.434 103.326 208.331 103.034C208.126 102.449 207.833 101.631 207.456 100.61C206.702 98.5722 205.604 95.7141 204.181 92.2965C201.355 85.5093 197.153 76.2856 191.704 66.8133C186.325 57.4627 179.311 47.125 170.65 38.6374C162.111 30.2685 150.371 22.1505 135.632 20.6087C115.194 18.4707 96.7263 22.5139 84.5656 36.8207C73.3708 49.991 71.7325 67.2487 72.2961 81.0877C72.7083 91.2081 78.0545 98.6436 83.2109 103.39C88.2524 108.03 94.3594 111.337 99.967 113.77C111.261 118.672 125.19 121.989 137.773 124.295C150.625 126.649 163.302 128.16 172.677 129.083C177.388 129.547 181.321 129.867 184.095 130.073C185.483 130.176 186.584 130.25 187.351 130.299C187.734 130.324 188.034 130.342 188.245 130.355C188.351 130.361 188.434 130.366 188.494 130.37L188.566 130.374L188.59 130.375L188.598 130.376C188.601 130.376 188.604 130.376 189.719 110.407Z" stroke="#C2E4B2" stroke-width="40"/>
<path d="M240.291 110.257L241.423 130.225L211.875 131.9L221.342 103.859L240.291 110.257ZM240.291 110.257C221.342 103.859 221.343 103.855 221.345 103.85L221.349 103.84L221.357 103.814L221.381 103.745C221.4 103.69 221.424 103.62 221.453 103.534C221.512 103.363 221.594 103.13 221.697 102.838C221.903 102.256 222.197 101.441 222.576 100.425C223.332 98.3962 224.434 95.5512 225.861 92.1495C228.695 85.3936 232.909 76.2126 238.37 66.7829C243.761 57.4736 250.788 47.1834 259.456 38.7333C268.005 30.399 279.733 22.3317 294.432 20.785C314.823 18.6395 333.286 22.617 345.458 36.8667C356.683 50.0071 358.3 67.2387 357.72 81.019C357.293 91.1524 351.908 98.5718 346.76 103.286C341.719 107.902 335.618 111.192 330.016 113.616C318.731 118.499 304.811 121.812 292.233 124.119C279.386 126.474 266.714 127.992 257.343 128.921C252.634 129.387 248.702 129.71 245.929 129.918C244.542 130.022 243.441 130.097 242.675 130.147C242.292 130.172 241.992 130.191 241.782 130.203C241.677 130.21 241.594 130.215 241.534 130.218L241.461 130.222L241.438 130.224L241.43 130.224C241.426 130.224 241.423 130.225 240.291 110.257Z" stroke="#C2E4B2" stroke-width="40"/>
<rect y="114.813" width="430" height="75" rx="16" fill="#F6E4A8"/>
<rect x="172" y="108.313" width="86" height="88" rx="8" fill="#C2E4B2"/>
</svg>
