<svg width="65" height="92" viewBox="0 0 65 92" fill="none" xmlns="http://www.w3.org/2000/svg">
  <g filter="url(#filter0_d_150_281)">
    <path
      d="M21.8608 3.30524L25.5613 25.469C26.08 28.5757 26.3394 30.129 26.7427 31.4356C27.1001 32.5936 27.5393 33.6054 28.042 34.4288C28.6092 35.3578 29.2835 35.9553 30.6322 37.1501L40.2536 45.6747L30.6322 54.1992C29.2835 55.3941 28.6092 55.9915 28.042 56.9206C27.5393 57.744 27.1001 58.7557 26.7427 59.9137C26.3394 61.2203 26.08 62.7736 25.5613 65.8803L21.8608 88.0441L18.1602 65.8803C17.6415 62.7736 17.3822 61.2203 16.9788 59.9137C16.6214 58.7557 16.1822 57.744 15.6795 56.9206C15.1123 55.9915 14.438 55.3941 13.0894 54.1992L3.4679 45.6747L13.0894 37.1501C14.438 35.9553 15.1123 35.3578 15.6795 34.4288C16.1822 33.6054 16.6214 32.5936 16.9788 31.4356C17.3821 30.129 17.6415 28.5757 18.1602 25.469L21.8608 3.30524Z"
      fill="#EBC230" />
  </g>
  <g clip-path="url(#clip0_150_281)">
    <path
      d="M46.583 46L50.2836 55.6226C50.8023 56.9714 51.0616 57.6458 51.4649 58.213C51.8224 58.7158 52.2616 59.1551 52.7643 59.5125C53.3315 59.9159 54.0058 60.1753 55.3544 60.694L64.9759 64.395L55.3544 68.096C54.0058 68.6148 53.3315 68.8742 52.7643 69.2775C52.2616 69.635 51.8224 70.0743 51.4649 70.577C51.0616 71.1443 50.8023 71.8187 50.2836 73.1675L46.583 82.79L42.8825 73.1675C42.3638 71.8187 42.1044 71.1443 41.7011 70.577C41.3437 70.0743 40.9044 69.635 40.4017 69.2775C39.8346 68.8742 39.1602 68.6148 37.8116 68.096L28.1902 64.395L37.8116 60.694C39.1602 60.1753 39.8345 59.9159 40.4017 59.5125C40.9044 59.1551 41.3437 58.7158 41.7011 58.213C42.1044 57.6458 42.3638 56.9714 42.8825 55.6226L46.583 46Z"
      fill="#EBC230" />
  </g>
  <defs>
    <filter id="filter0_d_150_281" x="-0.535942" y="0.305237" width="44.7934" height="92.7465"
      filterUnits="userSpaceOnUse" color-interpolation-filters="sRGB">
      <feFlood flood-opacity="0" result="BackgroundImageFix" />
      <feColorMatrix in="SourceAlpha" type="matrix"
        values="0 0 0 0 0 0 0 0 0 0 0 0 0 0 0 0 0 0 127 0" result="hardAlpha" />
      <feOffset dy="1.00384" />
      <feGaussianBlur stdDeviation="0.501919" />
      <feComposite in2="hardAlpha" operator="out" />
      <feColorMatrix type="matrix" values="0 0 0 0 0.9375 0 0 0 0 0.753143 0 0 0 0 0 0 0 0 0.26 0" />
      <feBlend mode="normal" in2="BackgroundImageFix" result="effect1_dropShadow_150_281" />
      <feBlend mode="normal" in="SourceGraphic" in2="effect1_dropShadow_150_281" result="shape" />
    </filter>
    <clipPath id="clip0_150_281">
      <rect width="36.7857" height="36.79" fill="white" transform="translate(28.1902 46)" />
    </clipPath>
  </defs>
</svg>